<?xml version="1.0" encoding="utf-8"?>
<!-- Svg Vector Icons : http://www.onlinewebfonts.com/icon -->
<!DOCTYPE svg PUBLIC "-//W3C//DTD SVG 1.1//EN" "http://www.w3.org/Graphics/SVG/1.1/DTD/svg11.dtd">
<svg version="1.1" xmlns="http://www.w3.org/2000/svg" xmlns:xlink="http://www.w3.org/1999/xlink" x="0px" y="0px" viewBox="0 0 1000 1000" enable-background="new 0 0 1000 1000" xml:space="preserve">
<metadata> Svg Vector Icons : http://www.onlinewebfonts.com/icon </metadata>
<g><g transform="translate(0.000000,511.000000) scale(0.100000,-0.100000)"><path d="M2191.1,4394.6C1163,4223.9,382.4,3443.3,144.5,2344.2c-55.6-255.1-59.5-788.3-9.6-1068.4C309.5,316.8,844.6-626.9,1803.7-1660.8c753.8-815.2,2060-1862.5,3057.5-2451.3l140-82.5l140,82.5c299.2,176.5,815.2,529.4,1231.4,840.1C7997.2-2057.8,9157.6-730.5,9623.7,449.1c207.2,519.8,278.1,872.7,276.2,1373.4c0,260.9-9.6,364.4-42.2,521.7c-201.4,939.9-840.1,1687.9-1670.7,1960.3c-262.8,86.3-418.1,107.4-759.6,105.5c-257,0-366.3-9.6-519.8-42.2c-406.6-86.3-796-255.1-1102.9-477.6c-303.1-216.7-611.9-575.4-744.2-863.1c-26.9-55.6-51.8-101.7-57.5-101.7c-5.8,0-48,71-92.1,159.2c-322.2,625.3-1007,1112.5-1804.9,1279.4C2864.4,4415.7,2404,4431.1,2191.1,4394.6z M3096.5,4059c475.7-103.6,851.6-295.4,1164.3-596.5c161.1-153.4,310.7-352.9,395.1-517.9c97.8-193.7,191.8-560.1,191.8-750v-74.8h153.4h153.4v74.8c0,117,51.8,381.7,105.5,537.1c224.4,661.7,878.5,1179.6,1680.3,1335c1035.8,199.5,1960.3-235.9,2403.4-1135.5c585-1179.6,174.5-2641.2-1166.2-4168c-606.1-690.5-1498-1463.5-2437.9-2117.6c-347.2-241.7-709.7-471.9-744.2-471.9c-44.1,0-834.4,535.2-1227.6,832.5c-2390,1803-3569.6,3634.8-3339.4,5186.5C578,3201.6,1283.9,3947.7,2229.5,4095.4C2409.8,4122.3,2893.1,4103.1,3096.5,4059z"/></g></g>
</svg>